<?xml version="1.0" encoding="UTF-8" standalone="no"?><!DOCTYPE svg PUBLIC "-//W3C//DTD SVG 1.1//EN" "http://www.w3.org/Graphics/SVG/1.1/DTD/svg11.dtd"><svg width="100%" height="100%" viewBox="0 0 1000 1000" version="1.1" xmlns="http://www.w3.org/2000/svg" xmlns:xlink="http://www.w3.org/1999/xlink" xml:space="preserve" xmlns:serif="http://www.serif.com/" style="fill-rule:evenodd;clip-rule:evenodd;stroke-linejoin:round;stroke-miterlimit:2;"><path d="M244.294,558.247c63.253,69.498 154.422,113.148 255.706,113.148l0,-172.855l172.855,0c0,190.803 -154.908,345.71 -345.71,345.71c-74.077,0 -142.744,-23.349 -199.035,-63.083c66.012,-16.156 116.505,-103.399 116.505,-208.462c0,-4.859 -0.108,-9.681 -0.321,-14.459Z" style="fill:#de5c34;"/><path d="M441.753,244.294c-69.498,63.253 -113.148,154.422 -113.148,255.706l172.855,0l0,172.855c-190.803,0 -345.71,-154.908 -345.71,-345.71c0,-74.077 23.349,-142.744 63.083,-199.035c16.156,66.012 103.399,116.505 208.462,116.505c4.859,0 9.681,-0.108 14.459,-0.321Z" style="fill:#4989bb;"/><path d="M29.751,586.967l236.125,-63.269l1.461,199.87l-174.316,99.524l-63.269,-236.125Z" style="fill:#de5c34;"/><path d="M755.706,441.753c-63.253,-69.498 -154.422,-113.148 -255.706,-113.148l0,172.855l-172.855,0c0,-190.803 154.908,-345.71 345.71,-345.71c74.077,0 142.744,23.349 199.035,63.083c-66.012,16.156 -116.505,103.399 -116.505,208.462c0,4.859 0.108,9.681 0.321,14.459Z" style="fill:#2da937;"/><path d="M417.033,29.751l63.269,236.125l-198.576,-0l-100.818,-172.855l236.125,-63.269Z" style="fill:#4989bb;"/><path d="M558.247,755.706c69.498,-63.253 113.148,-154.422 113.148,-255.706l-172.855,0l0,-172.855c190.803,0 345.71,154.908 345.71,345.71c0,74.077 -23.349,142.744 -63.083,199.035c-16.156,-66.012 -103.399,-116.505 -208.462,-116.505c-4.859,0 -9.681,0.108 -14.459,0.321Z" style="fill:#ffdf5a;"/><path d="M582.967,970.249l-63.269,-236.125l192.371,8.327l107.023,164.528l-236.125,63.269Z" style="fill:#ffdf5a;"/><path d="M970.249,415.033l-236.125,63.269l9.758,-194.625l163.097,-104.769l63.269,236.125Z" style="fill:#2da937;"/><path d="M327.145,500c0,-95.401 77.454,-172.855 172.855,-172.855c95.401,0 172.855,77.454 172.855,172.855c0,95.401 -77.454,172.855 -172.855,172.855c-95.401,0 -172.855,-77.454 -172.855,-172.855Z" style="fill:#a75df0;"/><path d="M500,628.911c-18.152,-25.753 -30.373,-73.862 -30.373,-128.911c0,-55.049 12.222,-103.158 30.373,-128.911c18.152,25.753 30.373,73.862 30.373,128.911c0,55.049 -12.222,103.158 -30.373,128.911Z" style="fill:#2d14a2;"/><circle cx="360.267" cy="122.628" r="33.122" style="fill:#fff;"/><circle cx="636.272" cy="885.309" r="33.122" style="fill:#fff;"/><path d="M918.432,361.728c0,18.281 -14.842,33.122 -33.122,33.122c-18.281,0 -33.122,-14.842 -33.122,-33.122c0,-18.281 14.842,-33.122 33.122,-33.122c18.281,0 33.122,14.842 33.122,33.122Z" style="fill:#fff;"/><path d="M148.235,640.155c0,18.281 -14.842,33.122 -33.122,33.122c-18.281,0 -33.122,-14.842 -33.122,-33.122c0,-18.281 14.842,-33.122 33.122,-33.122c18.281,0 33.122,14.842 33.122,33.122Z" style="fill:#fff;"/></svg>